<?xml version="1.0" standalone="no"?>
<!DOCTYPE svg PUBLIC "-//W3C//DTD SVG 20010904//EN"
 "http://www.w3.org/TR/2001/REC-SVG-20010904/DTD/svg10.dtd">
<svg version="1.0" xmlns="http://www.w3.org/2000/svg"
 width="1920.000000pt" height="500.000000pt" viewBox="0 0 1920.000000 500.000000"
 preserveAspectRatio="xMidYMid meet">

<g transform="translate(0.000000,500.000000) scale(0.100000,-0.100000)"
fill="#000000" stroke="none">
<path d="M0 3031 c0 -1961 0 -1970 20 -1976 11 -3 20 -13 20 -21 0 -11 -6 -13
-20 -9 -20 6 -20 2 -20 -189 0 -108 3 -196 6 -196 4 0 25 12 48 26 38 25 136
150 136 174 0 6 18 33 40 59 28 33 40 57 40 79 0 18 -3 32 -7 32 -10 0 -8 87
2 117 4 14 3 23 -3 23 -14 0 -22 36 -10 48 7 7 4 19 -10 36 -11 14 -23 41 -26
60 -5 24 -18 41 -47 62 -70 49 -139 154 -139 214 0 44 23 93 53 113 16 10 46
17 78 17 44 0 55 4 81 32 22 24 28 38 23 56 -6 25 9 52 30 52 14 0 14 -42 0
-73 -11 -26 3 -34 20 -11 8 10 15 14 15 7 0 -6 14 -20 30 -30 17 -9 33 -25 36
-35 3 -10 12 -18 20 -18 17 0 19 31 3 47 -13 13 -4 33 16 33 7 0 17 9 20 20 3
11 13 20 21 20 20 0 17 20 -3 21 -88 6 -105 1 -84 -25 12 -14 5 -26 -15 -26
-7 0 -16 15 -19 33 -4 17 -14 40 -22 49 -24 27 2 75 44 83 18 3 38 3 45 -1 7
-5 9 1 5 18 -5 19 0 32 19 51 18 18 24 32 19 46 -3 11 -1 29 5 40 5 12 15 30
21 42 7 15 7 36 -2 74 -11 50 -10 56 12 92 34 55 57 71 116 78 39 5 52 12 56
26 3 11 14 19 25 19 12 0 24 5 27 10 9 15 25 2 18 -15 -3 -8 -4 -15 -2 -15 4
0 122 26 167 37 33 8 137 -33 213 -83 37 -24 71 -44 75 -44 13 0 35 36 120
201 20 38 40 72 45 75 5 3 9 13 9 22 0 15 56 97 134 198 13 16 55 73 94 125
39 52 88 117 110 144 22 28 47 64 56 82 8 17 19 33 24 35 4 1 32 34 61 72 61
81 121 151 211 250 66 73 114 131 139 170 7 11 33 37 57 56 23 19 43 40 43 47
1 7 7 16 14 20 12 7 137 188 137 198 0 2 26 48 58 102 96 163 95 157 96 403 1
188 3 219 19 243 9 14 17 36 17 47 0 24 24 76 48 103 8 9 33 22 54 27 21 6 60
21 86 32 26 12 56 25 67 29 11 4 -636 7 -1437 8 l-1458 1 0 -1969z m2210 925
c0 -15 -27 -40 -52 -49 -12 -4 -18 -1 -18 8 0 8 7 15 15 15 9 0 20 11 27 25
11 24 28 25 28 1z m-1477 -1333 c-7 -2 -19 -2 -25 0 -7 3 -2 5 12 5 14 0 19
-2 13 -5z m-163 -23 c0 -5 -5 -10 -11 -10 -5 0 -7 5 -4 10 3 6 8 10 11 10 2 0
4 -4 4 -10z m-223 -96 c-3 -3 -12 -4 -19 -1 -8 3 -5 6 6 6 11 1 17 -2 13 -5z
m640 0 c-3 -3 -12 -4 -19 -1 -8 3 -5 6 6 6 11 1 17 -2 13 -5z m-677 -22 c0 -5
-7 -17 -15 -28 -8 -10 -15 -28 -16 -39 l-1 -20 -5 20 c-3 11 -10 26 -16 33 -7
9 -5 17 9 27 21 16 44 19 44 7z"/>
<path d="M2940 4993 c14 -2 54 -10 90 -17 36 -8 92 -20 125 -26 76 -16 167
-55 182 -79 16 -26 20 -96 6 -113 -6 -7 -13 -22 -16 -33 -4 -16 -5 -15 -6 6 0
15 -8 32 -17 40 -14 11 -14 13 0 21 23 13 8 41 -19 34 -14 -4 -32 1 -46 13
-13 10 -39 20 -57 23 -32 5 -33 4 -28 -26 3 -17 3 -25 0 -18 -3 6 -13 12 -21
12 -12 0 -14 -7 -9 -31 3 -18 2 -37 -4 -44 -6 -7 -6 -48 0 -116 5 -57 6 -150
3 -206 -5 -90 -4 -103 10 -109 10 -3 17 -16 17 -28 0 -11 9 -34 19 -50 21 -31
16 -51 -23 -109 -16 -23 -24 -27 -47 -22 -25 6 -29 3 -29 -14 0 -12 -6 -21
-15 -21 -19 0 -19 0 10 58 17 33 25 67 25 100 0 47 -2 50 -22 45 -13 -2 -32
-8 -43 -13 -46 -19 -61 -23 -80 -21 -11 0 -27 -3 -35 -9 -13 -9 -11 -13 9 -29
22 -16 23 -22 14 -47 -6 -16 -24 -62 -39 -101 -15 -40 -31 -73 -35 -73 -4 0
-18 -17 -30 -37 -13 -21 -29 -42 -36 -46 -7 -4 -13 -14 -13 -21 0 -12 -15 -32
-67 -91 -10 -11 -17 -24 -15 -29 3 -9 -39 -67 -72 -100 -11 -11 -20 -34 -20
-53 -1 -19 -6 -33 -13 -33 -7 0 -13 -6 -13 -14 0 -10 -13 -16 -37 -18 -34 -3
-38 -6 -41 -33 -2 -16 -8 -35 -14 -42 -5 -7 -7 -16 -4 -21 10 -16 -18 -97 -41
-119 -29 -28 -29 -41 -1 -52 l22 -8 -23 -12 c-18 -10 -21 -18 -16 -40 5 -23 1
-32 -22 -49 -22 -17 -26 -23 -15 -33 22 -23 14 -42 -17 -37 -21 3 -27 0 -25
-11 1 -9 5 -33 8 -53 4 -35 3 -38 -20 -38 -33 0 -42 -27 -16 -46 25 -17 19
-44 -9 -44 -11 0 -22 -7 -25 -15 -4 -8 -14 -15 -23 -15 -29 0 -33 -13 -10 -31
l22 -17 -19 -33 c-11 -19 -30 -38 -41 -44 -19 -8 -21 -15 -16 -51 5 -36 3 -42
-16 -47 -13 -3 -21 -13 -21 -26 0 -21 -13 -26 -58 -22 -16 1 -25 -4 -29 -18
-3 -11 -14 -23 -24 -26 -20 -7 -26 -25 -9 -25 16 0 12 -37 -5 -44 -10 -3 -15
-19 -15 -47 0 -32 -8 -53 -32 -85 -18 -24 -40 -44 -50 -44 -9 0 -25 -12 -36
-27 l-19 -26 -21 21 c-30 30 -42 28 -42 -7 0 -17 -6 -31 -16 -35 -23 -9 -24
-8 -24 18 0 14 -4 27 -8 30 -12 7 -52 -23 -52 -39 0 -9 -6 -12 -15 -9 -18 7
-20 -12 -2 -20 8 -3 7 -9 -7 -20 -10 -8 -24 -17 -30 -19 -8 -3 -8 -13 1 -37 9
-25 10 -37 2 -47 -8 -9 -8 -17 -1 -25 11 -15 14 -79 3 -96 -9 -15 -88 -17
-120 -5 -19 7 -38 5 -75 -9 -28 -11 -60 -22 -71 -25 -11 -4 -29 -12 -40 -20
-11 -7 -34 -13 -51 -13 -22 0 -34 -6 -41 -23 -11 -22 -11 -22 -23 8 -12 30
-12 30 -23 8 -5 -13 -16 -23 -23 -23 -7 0 -21 -12 -31 -26 -10 -14 -39 -48
-64 -75 -26 -27 -43 -52 -38 -54 8 -6 -20 -67 -33 -73 -5 -2 -8 -8 -8 -13 0
-15 23 -10 50 11 14 11 32 20 40 19 12 0 12 -2 -3 -13 -9 -7 -17 -18 -17 -25
0 -6 -5 -11 -11 -11 -5 0 -7 -4 -4 -10 8 -13 -16 -91 -26 -84 -12 7 -32 -35
-25 -53 10 -24 -25 -113 -50 -130 -19 -12 -21 -18 -12 -32 14 -23 2 -112 -15
-105 -9 3 -13 -21 -14 -87 -2 -82 -5 -96 -30 -132 -15 -22 -29 -55 -30 -74 -1
-23 -11 -41 -32 -59 -17 -14 -31 -32 -31 -40 0 -8 18 -53 40 -100 22 -47 40
-90 40 -94 0 -4 7 -11 16 -14 11 -4 15 -14 12 -31 -4 -18 -1 -25 11 -25 9 0
31 -23 49 -50 17 -28 39 -50 47 -50 8 0 15 -4 15 -10 0 -18 35 -10 78 17 23
15 42 32 42 37 0 6 17 44 37 84 31 62 35 77 25 93 -16 25 -15 56 2 66 19 11
75 119 85 163 4 22 13 34 22 33 15 -2 59 59 59 82 0 8 6 18 13 22 6 4 20 24
29 44 9 20 30 52 47 72 17 19 34 50 37 68 4 19 12 43 19 54 6 11 15 33 19 48
6 24 11 28 34 25 26 -3 27 -6 35 -83 11 -97 18 -119 74 -203 47 -72 52 -99 26
-143 -18 -30 -39 -40 -29 -13 3 9 -4 25 -21 40 -30 27 -41 30 -49 10 -3 -9
-31 -16 -80 -21 -40 -4 -76 -10 -79 -14 -2 -4 -7 -27 -11 -49 -5 -35 -4 -42
10 -42 12 0 16 -10 16 -40 0 -22 5 -40 10 -40 6 0 10 12 10 28 0 38 15 60 23
33 5 -22 41 -29 52 -11 3 6 13 10 21 10 23 0 -3 -34 -38 -49 -34 -15 -122 -73
-141 -93 -39 -41 -46 -64 -36 -124 5 -33 13 -95 18 -139 6 -56 19 -104 44
-160 19 -44 50 -117 67 -163 l32 -82 1119 0 1119 0 52 33 c70 43 144 75 398
172 64 24 82 43 75 77 -5 21 -3 28 9 28 9 0 16 -8 16 -19 0 -11 5 -23 10 -26
14 -9 23 20 16 51 -6 22 -10 25 -36 19 -30 -7 -30 -7 -30 42 0 26 -5 68 -11
92 -6 30 -6 47 1 56 6 7 8 19 4 28 -3 8 -1 18 4 21 5 3 14 -19 20 -49 10 -51
49 -126 72 -140 5 -3 11 -16 11 -28 1 -17 2 -18 6 -5 2 10 11 18 18 18 17 0
30 23 40 70 3 19 13 49 21 66 10 24 12 48 6 100 -11 90 -8 202 5 215 8 8 20 6
44 -6 28 -15 38 -16 66 -6 20 7 47 9 70 5 21 -5 46 -7 56 -5 9 1 17 -3 17 -8
0 -6 -9 -11 -19 -11 -10 0 -21 -7 -25 -15 -3 -8 -12 -15 -21 -15 -19 0 -19
-14 1 -34 20 -20 19 -21 58 9 47 36 79 29 41 -9 -8 -8 -15 -24 -15 -35 0 -16
-6 -21 -25 -21 -14 0 -25 5 -25 11 0 5 -5 7 -11 4 -5 -4 -18 0 -27 8 -24 20
-59 30 -67 17 -3 -6 3 -10 14 -10 12 0 21 -6 21 -14 0 -7 9 -16 20 -19 16 -4
20 -14 20 -45 0 -47 12 -54 58 -35 35 14 39 22 20 42 -11 11 -9 12 12 6 14 -5
50 -9 80 -11 96 -3 68 -34 -32 -34 -36 0 -48 -4 -48 -15 0 -17 16 -20 25 -5 3
6 23 10 44 10 31 0 40 -5 49 -25 7 -15 8 -25 2 -25 -6 0 -10 -9 -10 -21 0 -18
4 -20 31 -14 29 7 31 5 26 -14 -7 -26 -3 -26 69 3 37 15 70 22 88 19 27 -6 28
-5 21 26 -5 22 -2 35 9 46 19 19 30 19 22 0 -9 -25 30 -38 59 -19 14 9 25 20
25 25 0 4 11 -3 25 -16 32 -33 55 -31 88 6 27 31 28 31 48 13 17 -15 18 -19 4
-26 -8 -5 -15 -16 -15 -24 0 -8 -6 -14 -12 -13 -31 4 -42 -1 -31 -12 15 -15
83 15 83 36 0 30 18 14 24 -21 7 -36 10 -38 58 -48 18 -4 25 -11 22 -20 -7
-19 31 -10 59 13 22 19 67 84 86 126 7 17 17 38 22 47 5 10 6 23 4 30 -3 8 1
22 9 33 14 19 15 16 16 -31 0 -29 -8 -67 -19 -90 -32 -68 -61 -201 -68 -313
l-6 -108 29 -20 c38 -26 71 -34 101 -22 30 11 185 169 222 224 14 22 42 68 61
102 21 38 53 76 83 98 45 34 47 39 41 71 -3 19 -2 40 3 47 6 6 13 25 17 41 4
17 18 40 32 53 l24 22 17 -25 c11 -18 23 -24 42 -22 20 2 26 -1 25 -14 -2 -22
24 -23 62 -3 16 8 37 15 46 15 10 0 17 6 15 12 -1 7 8 14 21 16 12 2 22 8 22
14 0 6 10 8 21 5 12 -3 30 -2 40 4 11 5 28 14 39 19 12 6 25 8 29 5 5 -3 11 2
15 10 3 9 18 15 35 15 16 0 36 7 45 15 8 8 22 15 31 15 9 0 24 4 33 9 14 7
106 18 179 21 7 0 24 17 38 39 23 33 24 42 14 65 -14 31 -6 44 16 26 12 -10
15 -10 15 1 0 8 4 20 9 28 7 11 13 10 35 -4 l26 -17 0 45 c0 25 4 48 9 52 5 3
7 21 4 41 -3 20 0 45 7 59 15 28 67 39 79 17 5 -8 22 -21 40 -28 40 -17 40 -6
6 72 -15 34 -25 75 -25 104 0 40 -4 50 -25 64 -22 14 -25 24 -25 70 0 56 15
81 39 67 7 -5 19 -46 27 -91 7 -46 17 -86 22 -89 9 -6 28 -91 38 -168 2 -20 9
-42 14 -47 19 -19 10 -42 -20 -53 -28 -11 -30 -15 -26 -50 2 -21 5 -43 5 -49
1 -6 12 -16 26 -22 15 -7 25 -20 25 -32 0 -24 -8 -25 -37 -5 -24 17 -20 19
-77 -45 -22 -25 -38 -91 -34 -148 l3 -54 135 -4 c74 -3 146 -5 160 -6 14 -1
54 4 90 10 36 7 107 17 158 22 52 6 126 19 165 29 114 31 227 44 273 33 21 -6
84 -13 139 -16 149 -9 210 -16 318 -37 60 -11 114 -16 142 -12 28 3 50 1 59
-6 20 -17 219 -32 269 -21 23 5 80 17 127 26 47 9 99 20 115 24 17 4 57 13 90
20 33 6 77 16 97 22 20 6 44 8 52 5 18 -7 22 -63 5 -69 -5 -2 -12 -33 -14 -68
-3 -36 -9 -83 -15 -105 -20 -76 -38 -278 -28 -305 21 -53 27 -121 17 -188 -3
-23 -2 -42 2 -42 16 0 49 35 49 52 0 9 4 19 9 22 13 9 32 -19 25 -38 -4 -11 0
-16 14 -16 12 0 24 -5 28 -12 5 -7 10 -4 15 10 8 22 29 31 29 13 0 -19 -21
-66 -33 -73 -7 -4 317 -8 720 -8 445 0 734 4 738 9 3 6 -1 13 -8 18 -14 8 -39
133 -27 133 4 0 21 -7 38 -16 27 -13 31 -19 25 -45 -5 -25 -2 -29 16 -29 12 0
30 5 40 12 16 10 29 7 73 -16 29 -16 58 -35 65 -44 10 -12 27 -13 90 -7 43 3
97 13 121 21 23 8 57 14 75 14 26 1 29 2 15 11 -16 9 -16 11 2 29 47 47 134
66 160 35 7 -8 19 -15 26 -15 8 0 14 -3 14 -7 0 -5 4 -14 9 -22 7 -11 13 -12
23 -4 7 6 33 18 58 26 47 16 49 22 37 91 -1 5 4 11 11 13 7 3 12 -5 12 -22 0
-14 8 -38 17 -52 10 -15 18 -33 18 -42 0 -8 11 -18 25 -21 16 -4 24 -12 22
-23 -3 -20 14 -22 51 -4 51 23 26 57 -42 57 l-46 1 40 14 c91 33 179 6 230
-70 l30 -45 121 0 c83 0 124 4 132 13 8 7 45 13 95 14 45 1 111 5 147 8 49 5
80 2 125 -11 51 -16 103 -19 360 -21 165 -1 295 1 288 3 -9 4 -11 19 -6 50 4
30 1 49 -8 60 -8 10 -14 43 -14 90 0 72 0 74 -42 116 -38 39 -41 45 -25 54 9
5 31 7 47 4 19 -4 39 0 54 9 19 12 25 13 29 3 2 -6 11 -12 19 -12 22 0 142
-67 174 -97 l25 -23 45 32 c24 18 58 43 74 55 59 43 195 102 255 110 25 3 53
13 63 21 15 14 17 13 17 -2 0 -13 7 -17 28 -14 15 1 52 -6 82 -16 43 -15 70
-35 123 -89 37 -39 77 -87 88 -108 l19 -39 103 -2 c107 -2 114 -2 190 8 62 8
96 -1 106 -29 7 -19 16 -22 92 -24 46 -1 91 -2 99 -3 26 -1 84 12 97 22 7 5
22 6 35 2 13 -4 92 -7 177 -5 149 1 157 0 208 -25 30 -14 63 -24 74 -21 12 3
31 -4 49 -20 35 -29 57 -25 66 13 7 27 86 176 109 204 7 8 35 59 64 113 66
124 109 185 169 233 26 22 77 66 113 99 40 36 86 68 117 80 56 21 58 23 40 47
-12 15 -45 20 -215 33 -41 4 -96 26 -107 44 -3 5 -3 23 0 41 6 27 10 31 30 26
17 -5 24 -2 24 9 0 8 8 16 18 16 9 1 29 2 45 3 36 2 64 30 49 48 -13 16 -120
70 -171 86 -28 10 -39 9 -58 -4 -13 -8 -29 -12 -35 -8 -8 5 -10 -8 -6 -47 3
-30 3 -46 1 -37 -2 10 -8 18 -11 18 -4 0 -16 17 -27 38 -11 20 -27 48 -37 61
-22 29 -23 82 -3 121 9 17 11 30 6 30 -20 0 -41 33 -41 65 0 29 4 34 25 37 14
2 27 8 28 13 3 14 -62 19 -78 5 -10 -8 -21 -4 -46 19 -31 29 -32 30 -16 55 12
17 13 27 6 32 -8 5 -6 10 5 16 19 11 21 41 3 56 -9 8 -24 8 -49 2 -42 -12 -57
-39 -32 -57 16 -12 16 -13 -4 -13 -27 0 -29 -26 -4 -35 11 -3 24 -16 30 -30
10 -21 8 -27 -11 -40 -30 -21 -80 -19 -101 4 -12 13 -17 34 -16 67 1 27 -4 65
-11 84 -6 19 -13 41 -15 47 -2 9 -19 4 -54 -14 -39 -20 -48 -29 -39 -39 10
-12 8 -149 -2 -158 -13 -12 -47 17 -52 43 -4 17 -22 55 -40 84 -44 69 -48 89
-36 183 6 43 11 90 12 104 2 24 4 25 72 25 68 0 70 -1 73 -26 2 -14 -4 -31
-12 -39 -11 -8 -16 -30 -16 -66 0 -53 1 -54 29 -54 15 0 40 10 54 22 14 13 37
32 51 43 15 11 35 36 46 55 11 19 24 42 29 50 16 27 41 88 41 101 0 10 3 10
12 1 16 -16 38 -15 38 1 0 7 8 17 19 24 26 16 32 49 12 66 -21 19 -101 33
-101 18 0 -15 -27 -14 -33 1 -8 23 11 112 42 198 17 47 31 92 31 101 0 20 28
76 41 85 6 3 17 -3 25 -14 20 -29 39 -20 101 45 46 49 54 53 73 43 17 -9 20
-17 15 -41 -6 -25 -4 -29 14 -29 12 0 21 4 21 8 0 13 89 35 120 28 17 -3 41 0
55 6 33 15 42 4 28 -32 -9 -24 -9 -30 2 -30 7 0 18 7 26 16 13 16 69 48 74 42
2 -2 -10 -22 -26 -46 -34 -50 -35 -58 -11 -65 39 -10 34 -90 -7 -122 -7 -6
-11 -20 -9 -31 3 -14 11 -18 32 -16 15 2 34 -2 42 -9 11 -9 14 -8 14 5 0 9 -8
16 -19 16 -24 0 -52 31 -33 37 6 3 12 13 12 24 0 10 5 19 11 19 5 0 15 14 21
31 6 16 15 28 22 26 6 -2 20 -1 31 4 16 6 14 8 -12 8 -26 1 -33 5 -33 21 0 28
28 37 44 15 9 -13 20 -16 39 -11 29 7 35 -2 15 -22 -9 -9 -5 -16 15 -32 15
-12 27 -28 27 -37 0 -14 3 -13 25 1 31 20 49 21 41 1 -4 -11 3 -17 25 -22 19
-3 42 -21 61 -44 20 -25 40 -39 54 -39 21 0 23 -4 18 -29 -9 -43 9 -67 61 -80
41 -10 44 -14 35 -31 -5 -10 -15 -22 -20 -25 -6 -3 -10 -15 -10 -27 0 -15 4
-18 16 -14 15 6 16 0 11 -38 -9 -61 19 -94 83 -99 32 -3 46 -9 48 -20 3 -12
-4 -17 -22 -17 -30 0 -32 -8 -12 -36 13 -17 18 -18 46 -7 36 13 95 7 111 -13
6 -8 18 -14 26 -14 8 0 25 -11 39 -25 31 -31 62 -48 74 -40 13 8 13 41 0 66
-8 15 -7 21 4 25 8 3 12 12 10 19 -7 17 31 105 45 105 5 0 21 18 34 41 27 45
35 42 39 -15 1 -27 -3 -41 -15 -47 -9 -6 -17 -18 -17 -28 0 -16 11 -20 63 -25
180 -18 193 -22 163 -55 -14 -15 -20 -43 -24 -111 -2 -50 -9 -93 -14 -96 -5
-4 -59 -6 -119 -5 l-108 2 -7 -26 c-10 -40 30 -163 64 -196 15 -15 34 -40 42
-56 27 -52 89 -131 122 -155 30 -21 44 -23 133 -22 75 0 116 6 164 22 86 29
104 28 148 -11 21 -19 76 -59 123 -90 95 -63 149 -112 188 -173 80 -124 169
-241 259 -342 27 -30 66 -83 88 -119 22 -35 48 -76 57 -91 55 -85 122 -249
134 -327 l6 -45 99 0 99 0 0 2500 0 2500 -8142 -1 c-4479 -1 -8132 -3 -8118
-6z m339 -290 c31 -18 39 -37 22 -48 -5 -3 -16 2 -24 10 -9 8 -20 15 -25 15
-5 0 -12 9 -15 20 -6 25 2 25 42 3z m-51 -45 c3 -14 -3 -18 -27 -18 -25 0 -31
4 -31 21 0 16 5 20 27 17 17 -2 29 -10 31 -20z m4600 -15 l3 -33 -48 0 c-26 0
-55 -4 -62 -9 -19 -12 -27 -125 -12 -163 9 -24 16 -27 62 -30 59 -3 83 -24 63
-55 -9 -14 -26 -18 -82 -18 -65 0 -74 3 -99 28 -27 27 -28 30 -28 147 l0 120
30 25 c26 22 38 24 100 22 l70 -2 3 -32z m284 8 l33 -29 0 -109 c0 -66 -5
-116 -12 -129 -32 -57 -166 -72 -230 -26 -26 18 -31 30 -36 78 -3 32 -3 87 -1
123 5 58 10 69 37 94 28 24 39 27 104 27 66 0 76 -3 105 -29z m168 -106 l5
-130 39 -3 c24 -2 42 2 47 10 5 7 9 68 9 136 l0 123 43 -3 42 -3 0 -115 c-1
-197 -14 -219 -137 -228 -66 -5 -68 -4 -103 31 l-35 35 0 134 c0 74 3 138 7
142 4 4 23 6 43 4 l35 -3 5 -130z m469 109 c29 -24 31 -31 31 -89 0 -57 -3
-66 -30 -94 -26 -25 -40 -30 -88 -33 l-57 -3 -5 -44 c-6 -51 -24 -67 -60 -53
-25 10 -25 11 -28 155 -2 80 -1 155 3 166 6 19 14 21 105 21 91 0 101 -2 129
-26z m293 21 c2 -3 3 -18 0 -35 -4 -29 -6 -30 -56 -30 -102 0 -119 -60 -20
-70 37 -4 50 -9 52 -23 6 -31 -17 -47 -57 -41 -43 7 -67 -12 -56 -46 6 -17 15
-20 70 -20 62 0 65 -1 71 -27 8 -29 -19 -58 -44 -48 -8 3 -38 5 -67 5 -99 0
-133 67 -113 227 11 93 34 112 139 113 42 0 78 -2 81 -5z m409 -24 c29 -29 29
-31 29 -145 0 -107 -2 -117 -22 -137 -13 -11 -33 -25 -46 -30 -26 -10 -162
-12 -186 -3 -14 5 -16 30 -16 168 0 90 3 166 7 169 3 4 51 7 105 7 97 0 100
-1 129 -29z m297 0 c5 -33 -6 -40 -66 -45 -62 -6 -72 -11 -72 -37 0 -21 7 -23
62 -20 28 2 39 -2 48 -18 19 -36 -3 -59 -58 -63 -43 -3 -47 -5 -47 -28 0 -24
4 -25 65 -30 l65 -5 0 -35 0 -35 -70 -3 c-60 -2 -76 1 -105 20 -44 30 -52 65
-44 185 6 88 8 94 36 118 28 23 37 26 107 23 71 -3 76 -4 79 -27z m386 23 c20
-8 21 -38 0 -58 -10 -11 -34 -16 -70 -16 -48 0 -56 -3 -66 -25 -16 -35 3 -53
60 -57 45 -3 47 -4 47 -33 0 -28 -2 -30 -45 -33 -56 -4 -65 -13 -65 -65 0 -36
-4 -43 -26 -51 -15 -5 -34 -6 -44 -2 -15 5 -17 21 -13 147 l3 141 33 29 c29
26 39 29 101 29 38 0 76 -3 85 -6z m275 -25 c24 -24 31 -39 31 -70 0 -22 -7
-50 -15 -63 -14 -21 -14 -24 0 -36 10 -9 15 -31 15 -75 0 -34 -2 -64 -5 -67
-3 -3 -20 -2 -38 1 -29 6 -32 11 -35 46 -4 51 -17 65 -58 65 -37 0 -50 -22
-39 -69 7 -35 -13 -54 -52 -49 l-28 3 -8 159 c-4 88 -5 165 -3 173 4 10 32 13
105 13 98 0 100 -1 130 -31z m284 -23 c22 -60 53 -177 61 -232 7 -47 -8 -68
-45 -62 -15 2 -25 13 -30 32 -10 35 -24 46 -65 46 -36 0 -54 -16 -54 -47 0
-29 -23 -39 -57 -24 -24 11 -25 15 -19 64 6 47 42 181 68 250 10 27 14 28 67
25 l55 -3 19 -49z m216 16 c14 -20 34 -52 45 -69 12 -18 24 -33 28 -33 4 0 8
30 10 68 l3 67 35 0 35 0 3 -166 c2 -154 1 -167 -16 -171 -25 -7 -62 9 -62 26
0 16 -64 132 -87 158 -9 10 -19 15 -23 13 -5 -3 -9 -46 -9 -97 -1 -51 -5 -96
-10 -101 -5 -5 -19 -7 -32 -5 -24 3 -24 3 -27 163 -1 87 0 165 2 172 3 8 21
13 43 13 33 0 41 -5 62 -38z m419 1 l3 -33 -48 0 c-70 0 -78 -8 -80 -86 -3
-99 5 -112 69 -116 52 -3 53 -4 56 -35 l3 -33 -76 0 c-71 0 -79 2 -106 29 -28
28 -29 33 -29 125 0 156 23 187 135 183 l70 -2 3 -32z m257 2 c0 -29 -1 -30
-59 -35 -62 -5 -85 -22 -73 -54 5 -12 19 -16 56 -16 41 0 51 -3 56 -20 11 -33
-12 -50 -67 -50 -48 0 -49 -1 -46 -27 3 -27 6 -28 68 -33 64 -5 65 -5 68 -37
4 -38 -9 -44 -93 -39 -85 4 -111 23 -125 93 -7 34 -9 83 -5 126 6 62 12 75 38
100 28 26 34 28 106 25 l76 -3 0 -30z m-8180 -40 c34 -33 31 -55 -10 -98 -39
-41 -50 -45 -59 -22 -3 8 -10 15 -16 15 -5 0 -10 -7 -10 -15 0 -8 -4 -15 -10
-15 -5 0 -10 12 -10 26 0 17 -6 28 -20 31 -24 6 -24 7 -6 41 8 15 17 35 20 45
9 28 90 24 121 -8z m4034 -69 c7 -8 11 -30 9 -48 l-3 -33 -630 0 -630 0 -3 33
c-6 65 -41 62 633 62 520 0 614 -2 624 -14z m5586 -36 l0 -45 -630 0 -630 0
-3 33 c-7 67 -55 62 635 60 l628 -3 0 -45z m-2562 -409 c4 -4 6 -245 5 -537
l-3 -529 -122 -3 -123 -3 0 76 0 76 -78 122 c-44 67 -95 147 -114 177 -20 30
-58 87 -85 126 -26 38 -53 79 -59 89 -6 10 -16 21 -22 23 -10 3 -11 -59 -8
-265 2 -147 1 -303 -2 -345 l-5 -78 -117 0 -117 0 -7 93 c-3 50 -4 187 -1 302
2 116 5 317 5 448 l0 238 137 -3 138 -3 100 -153 c55 -84 129 -197 164 -252
34 -55 66 -98 71 -95 4 2 5 115 2 251 -4 203 -2 248 9 256 16 10 219 1 232
-11z m627 10 l116 -1 11 -32 c6 -18 30 -94 53 -168 23 -74 55 -173 72 -220 17
-47 34 -101 38 -120 17 -75 30 -129 50 -215 15 -62 22 -126 23 -205 l2 -115
-120 0 -120 0 -5 97 c-3 53 -10 102 -16 108 -7 7 -68 10 -175 8 l-164 -3 -2
-45 c-2 -25 -5 -73 -9 -108 l-6 -63 -121 3 -122 3 1 95 c1 53 11 141 23 200
12 58 26 128 31 155 4 28 28 107 52 175 41 115 58 166 120 365 12 39 25 75 29
80 4 6 34 10 66 9 32 -1 110 -2 173 -3z m1718 -1 l203 0 -3 -107 -3 -108 -185
-5 c-102 -3 -193 -9 -202 -14 -37 -17 -65 -144 -40 -183 6 -9 58 -13 182 -15
l175 -3 3 -91 c4 -131 10 -127 -197 -123 l-166 4 0 -71 c0 -82 16 -119 54
-129 14 -4 105 -8 202 -10 97 -1 182 -5 189 -10 10 -6 11 -30 6 -103 -4 -52
-9 -99 -12 -103 -3 -5 -109 -9 -235 -9 l-230 0 -77 49 c-154 99 -162 122 -162
474 0 184 4 262 16 324 16 77 20 86 60 120 94 83 168 127 199 118 11 -2 111
-5 223 -5z m-5923 -110 l0 -105 -180 -5 c-120 -3 -188 -9 -203 -18 -40 -23
-53 -55 -50 -124 l3 -63 162 -1 c89 -1 169 -4 177 -7 13 -5 16 -25 16 -106 l0
-99 -32 -7 c-18 -4 -97 -6 -177 -4 l-146 4 1 -66 c3 -97 20 -125 90 -139 31
-7 102 -11 158 -10 55 1 120 2 144 1 l42 -1 0 -110 0 -110 -82 0 c-56 -1 -89
-5 -102 -15 -16 -12 -20 -12 -33 1 -12 12 -41 15 -140 13 -75 -1 -128 2 -131
8 -4 5 -13 12 -19 14 -7 2 -42 27 -77 54 -111 86 -120 121 -120 485 1 349 3
358 118 445 100 76 86 73 346 72 l235 -2 0 -105z m426 73 c13 -21 89 -137 169
-258 l145 -220 5 255 5 255 120 0 120 0 3 -515 c1 -283 0 -525 -3 -538 -5 -22
-8 -23 -123 -20 l-117 3 -3 69 c-2 53 -8 76 -26 100 -13 17 -32 47 -41 66 -10
19 -68 112 -130 205 -61 94 -124 189 -139 213 -32 51 -50 46 -42 -12 10 -69
10 -636 0 -646 -5 -5 -60 -6 -124 -2 l-115 7 -3 525 c-1 289 0 531 3 538 3 9
40 12 139 12 l134 0 23 -37z m1760 -15 c2 -83 -2 -152 -10 -161 -4 -4 -88 -9
-187 -10 -108 -2 -187 -8 -200 -15 -43 -23 -54 -55 -54 -161 l0 -101 183 -2
182 -3 3 -103 c2 -76 -1 -104 -10 -107 -7 -3 -89 -6 -183 -7 l-170 -3 -5 -180
-5 -180 -130 0 -130 0 -3 310 c-3 315 7 498 33 590 15 53 38 76 144 147 l56
37 243 0 242 1 1 -52z m379 -488 l0 -540 -42 -2 c-34 -1 -188 0 -220 2 -14 0
-16 741 -3 968 l7 112 129 0 129 0 0 -540z m2361 443 c1 -54 2 -222 3 -373 1
-151 6 -286 10 -300 12 -38 46 -69 80 -75 17 -4 99 -7 181 -8 l150 -2 3 -112
3 -113 -53 -2 c-29 -1 -128 -1 -220 0 -161 2 -169 3 -215 28 -85 48 -141 94
-158 131 -31 65 -44 238 -45 591 l0 332 130 0 130 0 1 -97z m-8841 -7 c0 -2
-7 -7 -16 -10 -8 -3 -12 -2 -9 4 6 10 25 14 25 6z m2417 -272 c-3 -3 -12 -4
-19 -1 -8 3 -5 6 6 6 11 1 17 -2 13 -5z m-2632 -13 c3 -5 1 -12 -5 -16 -5 -3
-10 1 -10 9 0 18 6 21 15 7z m2662 -7 c-3 -3 -12 -4 -19 -1 -8 3 -5 6 6 6 11
1 17 -2 13 -5z m-2427 -104 c0 -5 -4 -10 -9 -10 -6 0 -13 5 -16 10 -3 6 1 10
9 10 9 0 16 -4 16 -10z m2080 -100 c-7 -14 -7 -20 0 -20 5 0 10 -8 10 -17 0
-15 -4 -13 -20 7 -25 32 -25 50 0 50 18 0 19 -3 10 -20z m-2443 -12 c-3 -8 -6
-5 -6 6 -1 11 2 17 5 13 3 -3 4 -12 1 -19z m-70 -140 c-3 -8 -6 -5 -6 6 -1 11
2 17 5 13 3 -3 4 -12 1 -19z m-17 -58 c0 -5 -4 -10 -10 -10 -5 0 -10 5 -10 10
0 6 5 10 10 10 6 0 10 -4 10 -10z m-26 -57 c-3 -21 -10 -42 -15 -47 -5 -6 -9
-24 -9 -42 0 -17 -7 -37 -15 -44 -8 -7 -15 -24 -15 -39 0 -14 -6 -45 -13 -69
-11 -38 -15 -41 -30 -29 -16 11 -17 15 -3 41 8 16 12 35 9 43 -3 8 2 20 12 27
13 9 15 15 7 20 -7 4 -12 20 -12 36 0 25 4 29 23 27 18 -2 22 3 22 24 0 14 5
32 11 40 6 8 14 22 17 32 11 31 18 18 11 -20z m11961 -53 c3 -5 -8 -39 -24
-74 -17 -35 -31 -71 -31 -79 0 -20 -104 -150 -109 -136 -5 15 19 90 36 110 7
8 13 20 13 26 0 6 16 34 35 63 19 29 35 57 35 64 0 13 20 36 31 36 4 0 11 -4
14 -10z m2617 -23 c43 -2 62 -7 81 -25 22 -21 28 -22 46 -10 16 10 23 10 33 0
6 -6 19 -12 27 -12 8 0 28 -10 45 -23 17 -13 46 -30 64 -38 17 -8 32 -20 32
-26 0 -7 7 -13 16 -13 8 0 12 -5 9 -11 -5 -7 -13 -5 -24 5 -10 9 -24 16 -31
16 -7 0 -28 11 -46 25 -40 30 -55 31 -79 5 -14 -15 -21 -17 -31 -9 -11 9 -22
5 -49 -15 l-35 -27 -34 20 c-18 11 -38 32 -44 46 -12 27 -28 33 -34 13 -4 -10
-10 -10 -32 0 -21 9 -25 16 -20 36 7 29 -9 42 -26 21 -9 -10 -9 -15 -1 -15 6
0 11 -9 11 -20 0 -28 -13 -25 -40 10 -14 18 -32 30 -46 30 -13 0 -24 4 -24 9
0 12 59 18 125 14 28 -2 76 -5 107 -6z m-13362 -5 c0 -4 -5 -13 -11 -19 -8 -8
-4 -16 15 -28 27 -18 36 -55 12 -55 -15 0 -66 48 -66 61 0 5 5 9 10 9 6 0 10
9 10 20 0 11 7 20 15 20 8 0 15 -4 15 -8z m13062 -12 c19 -14 28 -16 36 -8 16
16 28 2 13 -16 -9 -10 -9 -15 1 -19 7 -2 20 -18 30 -33 l16 -29 -41 0 c-49 0
-71 11 -63 31 3 8 -3 29 -14 47 -32 51 -23 63 22 27z m-13027 -10 c3 -5 -1
-10 -9 -10 -9 0 -16 5 -16 10 0 6 4 10 9 10 6 0 13 -4 16 -10z m489 -36 c20
-8 11 -24 -15 -24 -19 0 -25 11 -12 23 8 8 8 8 27 1z m3103 -16 c-3 -8 -6 -5
-6 6 -1 11 2 17 5 13 3 -3 4 -12 1 -19z m-3147 8 c0 -2 -3 -11 -6 -20 -5 -12
-9 -13 -25 -3 -26 16 -24 27 6 27 14 0 25 -2 25 -4z m12204 -41 c-4 -8 -18
-15 -34 -15 -15 0 -35 -9 -45 -20 -19 -20 -45 -27 -45 -11 0 15 48 41 75 41
14 0 25 5 25 10 0 6 7 10 15 10 9 0 12 -6 9 -15z m-12057 -37 c-3 -8 -6 -5 -6
6 -1 11 2 17 5 13 3 -3 4 -12 1 -19z m12523 -21 c8 -4 2 -5 -15 -4 -21 1 -31
8 -34 22 -3 19 -2 19 15 4 11 -9 26 -19 34 -22z m-10715 -11 c16 -12 17 -16 6
-30 -17 -21 -30 -20 -38 2 -4 9 -14 22 -22 29 -14 11 -12 12 10 13 14 0 34 -6
44 -14z m10110 4 c-3 -5 -15 -10 -26 -10 -10 0 -19 5 -19 10 0 6 12 10 26 10
14 0 23 -4 19 -10z m1125 0 c0 -5 -2 -10 -4 -10 -3 0 -8 5 -11 10 -3 6 -1 10
4 10 6 0 11 -4 11 -10z m-1655 -20 c-3 -5 -10 -10 -16 -10 -5 0 -9 5 -9 10 0
6 7 10 16 10 8 0 12 -4 9 -10z m1708 3 c-7 -2 -21 -2 -30 0 -10 3 -4 5 12 5
17 0 24 -2 18 -5z m-5327 -29 c4 -14 4 -47 0 -74 l-7 -49 68 -3 68 -3 5 -215
c5 -187 3 -271 -14 -550 -2 -43 -11 -68 -39 -112 -20 -31 -41 -59 -46 -62 -4
-3 -6 -18 -4 -33 5 -27 5 -27 -11 -8 -15 19 -17 19 -30 3 -7 -10 -23 -18 -35
-18 -11 0 -21 -4 -21 -9 0 -5 -10 -11 -21 -14 -20 -5 -21 -11 -16 -51 12 -88
-8 -95 -120 -43 -13 6 -23 14 -23 19 0 12 34 10 47 -3 12 -12 88 54 79 69 -3
5 -73 12 -156 15 l-151 6 -69 40 c-72 43 -86 48 -92 31 -2 -8 -20 -7 -57 1
-47 10 -55 9 -63 -5 -9 -16 -38 -23 -38 -8 0 4 7 16 15 26 8 11 15 26 15 33 0
22 23 40 42 35 17 -4 18 11 16 249 -1 140 -1 333 0 430 l2 177 38 4 c20 3 75
3 122 0 l85 -4 0 -363 c0 -429 -6 -405 107 -405 37 0 77 -6 88 -12 17 -11 25
-10 47 2 51 29 53 38 52 414 0 371 -1 366 48 366 31 0 45 30 27 55 -20 26 -18
72 4 84 26 15 31 13 38 -15z m4029 -4 c0 -8 -13 -17 -30 -22 -16 -4 -37 -18
-47 -30 -16 -22 -17 -22 -24 -4 -8 21 17 46 47 46 9 0 20 7 23 16 7 18 31 14
31 -6z m-9895 -5 c0 -8 -3 -15 -6 -15 -3 0 -12 7 -20 15 -14 13 -13 15 5 15
12 0 21 -6 21 -15z m67 9 c-3 -3 -12 -4 -19 -1 -8 3 -5 6 6 6 11 1 17 -2 13
-5z m10850 0 c-3 -3 -12 -4 -19 -1 -8 3 -5 6 6 6 11 1 17 -2 13 -5z m66 -1
c-7 -2 -19 -2 -25 0 -7 3 -2 5 12 5 14 0 19 -2 13 -5z m-14823 -13 c0 -5 -11
-33 -24 -62 -14 -29 -27 -61 -30 -71 -7 -22 -39 -19 -44 4 -2 9 9 30 23 47 15
18 24 36 21 41 -3 5 3 11 14 14 11 3 20 12 20 21 0 9 5 16 10 16 6 0 10 -4 10
-10z m7540 -30 c4 -14 3 -36 -2 -49 -13 -36 -38 -9 -38 41 0 32 3 39 17 36 9
-2 20 -14 23 -28z m6390 26 c0 -11 -19 -15 -25 -6 -3 5 1 10 9 10 9 0 16 -2
16 -4z m1172 -60 c4 -6 4 -22 0 -36 -4 -14 -6 -40 -5 -57 1 -18 -3 -33 -8 -33
-5 0 -9 4 -9 9 0 5 -9 13 -20 16 -14 4 -19 13 -16 23 19 64 19 73 -3 79 -11 3
-18 9 -15 14 6 11 67 -1 76 -15z m-7955 -53 c-3 -10 -5 -2 -5 17 0 19 2 27 5
18 2 -10 2 -26 0 -35z m5003 9 c0 -23 -35 -56 -49 -48 -6 4 -8 13 -6 21 3 8 7
22 10 30 7 22 45 19 45 -3z m-7778 -13 c3 -8 21 -61 38 -119 17 -58 37 -123
44 -145 30 -90 39 -136 28 -147 -18 -18 -101 0 -124 28 -12 13 -28 24 -35 24
-29 0 -66 36 -89 86 -29 64 -41 73 -53 40 -12 -31 -35 -38 -132 -40 -90 -1
-95 3 -75 67 7 23 24 79 36 125 28 100 23 98 245 96 81 -2 111 -5 117 -15z
m488 1 c16 -8 18 -23 19 -97 0 -49 5 -108 11 -133 16 -68 70 -281 80 -315 5
-16 14 -50 21 -75 14 -55 22 -64 47 -56 14 5 24 25 37 71 9 36 15 71 12 79 -3
7 0 22 8 32 22 33 68 202 61 228 -3 10 2 32 10 48 8 16 18 73 22 126 l7 97
115 0 115 0 3 -71 c3 -78 -31 -271 -73 -410 -14 -45 -25 -93 -25 -107 0 -13
-9 -46 -19 -73 -23 -60 -58 -176 -78 -264 -8 -36 -19 -69 -24 -74 -5 -6 -82
-11 -172 -13 -126 -3 -166 -1 -174 9 -11 14 -37 208 -36 270 1 31 -7 45 -42
82 -32 32 -48 60 -60 103 -9 32 -25 90 -36 128 -53 187 -77 406 -46 418 23 10
198 7 217 -3z m1290 -9 c10 -20 16 -178 6 -188 -3 -3 -84 -6 -180 -7 -167 -1
-177 -2 -198 -23 -16 -17 -23 -38 -26 -84 -3 -40 -1 -64 7 -68 6 -4 78 -9 158
-10 81 -1 151 -5 155 -7 4 -3 8 -48 8 -100 l0 -94 -159 0 c-88 0 -162 -4 -165
-9 -3 -4 -3 -39 1 -76 9 -99 18 -105 162 -105 64 0 146 -3 182 -6 l66 -7 2
-92 c1 -63 -3 -96 -12 -102 -6 -6 -105 -14 -219 -17 l-206 -7 -41 25 c-22 14
-44 26 -48 27 -5 0 -31 27 -60 59 -42 48 -53 67 -58 107 -3 26 -10 68 -16 93
-17 79 -15 278 4 414 10 70 21 136 26 145 15 27 62 67 131 110 l65 41 202 0
c189 0 203 -1 213 -19z m713 7 c2 -7 5 -50 6 -94 3 -115 5 -114 -177 -114
-153 -1 -168 -4 -190 -46 -7 -13 -11 -98 -10 -243 1 -274 -3 -265 120 -267 45
-1 121 -6 168 -10 l85 -9 3 -99 c1 -55 -2 -104 -7 -109 -6 -6 -86 -10 -189 -9
-176 0 -180 1 -236 28 -32 15 -81 48 -110 73 -51 44 -54 50 -71 126 -20 91
-23 303 -6 445 25 204 19 185 80 245 31 31 67 58 80 62 14 3 36 12 50 19 36
19 397 20 404 2z m604 -53 c3 -78 21 -183 44 -266 11 -37 23 -86 28 -110 12
-56 54 -219 78 -298 8 -28 24 6 49 100 14 52 32 119 41 149 37 129 73 329 73
402 0 92 -3 90 140 86 l95 -3 3 -95 c2 -52 -2 -120 -9 -150 -19 -90 -89 -362
-103 -405 -8 -22 -17 -69 -21 -105 -4 -36 -10 -67 -14 -70 -9 -7 -41 -102 -41
-122 0 -9 -5 -28 -11 -42 l-12 -25 -176 6 c-97 3 -177 7 -178 8 -2 1 -16 48
-33 106 -17 57 -35 113 -40 124 -14 29 -111 410 -139 543 -12 59 -15 215 -4
226 4 3 57 5 117 4 l111 -3 2 -60z m1277 33 c100 -63 143 -105 154 -150 26
-105 35 -300 23 -468 -15 -211 -21 -261 -31 -255 -5 3 -42 -17 -82 -43 -40
-27 -93 -54 -118 -61 -47 -12 -338 -9 -395 5 -33 8 -136 107 -161 155 -8 17
-29 39 -47 49 -18 11 -27 20 -21 20 27 0 35 61 38 281 3 295 15 346 89 406
114 91 120 93 321 93 l179 0 51 -32z m1824 -61 c1 -48 -2 -95 -7 -105 -8 -15
-25 -16 -148 -13 -205 5 -241 -10 -231 -94 4 -40 39 -61 152 -95 220 -66 276
-126 276 -295 0 -137 -42 -211 -167 -291 l-51 -34 -184 1 c-238 2 -235 2 -220
-13 7 -7 12 -39 12 -74 0 -73 -6 -76 -107 -67 l-63 6 0 43 c0 34 4 44 16 44
24 0 71 31 82 54 7 17 5 50 -10 116 -2 8 4 15 12 15 11 0 16 15 20 54 l5 54
170 3 c94 2 180 3 192 4 33 0 53 27 53 70 0 56 -22 73 -135 104 -184 51 -239
87 -275 182 -35 95 -18 267 32 306 31 26 149 103 168 111 8 3 103 5 210 4
l195 -2 3 -88z m-10683 43 c3 -5 12 -7 20 -3 10 3 15 -1 15 -15 0 -23 -18 -74
-28 -82 -15 -10 -42 -60 -42 -76 0 -13 -3 -14 -14 -5 -9 8 -16 8 -20 2 -4 -5
-2 -12 4 -16 16 -10 12 -45 -9 -71 l-19 -24 -4 30 c-3 17 -1 30 4 30 5 0 8 12
7 28 -3 37 22 94 39 87 10 -3 11 3 7 29 -5 26 -3 35 10 40 12 4 16 14 13 31
-5 25 5 34 17 15z m15121 -57 c18 -24 17 -43 -1 -43 -17 0 -34 29 -28 48 6 16
13 15 29 -5z m-3156 -41 c0 -25 -50 -49 -61 -30 -6 8 -1 19 14 30 29 23 47 23
47 0z m3267 3 c9 -25 -2 -27 -22 -5 -17 18 -17 20 -1 20 9 0 19 -7 23 -15z
m970 -21 c7 -19 -21 -44 -48 -44 -24 0 -31 26 -13 45 20 20 53 19 61 -1z
m-15163 -56 c-11 -17 -24 -6 -24 19 0 26 1 26 14 8 8 -11 12 -23 10 -27z
m-1234 -27 c0 -11 -4 -23 -10 -26 -6 -4 -10 5 -10 19 0 14 5 26 10 26 6 0 10
-9 10 -19z m15620 -31 c0 -5 -8 -10 -17 -10 -15 0 -16 2 -3 10 19 12 20 12 20
0z m-983 -37 c-3 -3 -11 -2 -17 2 -9 6 -9 10 1 16 14 8 27 -7 16 -18z m-110
11 c-3 -3 -12 -4 -19 -1 -8 3 -5 6 6 6 11 1 17 -2 13 -5z m150 -30 c-3 -3 -12
-4 -19 -1 -8 3 -5 6 6 6 11 1 17 -2 13 -5z m-11473 -20 c9 -8 16 -21 17 -27 3
-43 8 -59 22 -75 23 -25 21 -36 -9 -52 -22 -12 -29 -12 -52 1 -23 12 -27 22
-30 65 -3 52 10 104 27 104 5 0 17 -7 25 -16z m901 6 c3 -5 -2 -10 -12 -10
-11 0 -24 -5 -29 -10 -6 -6 -25 -14 -42 -19 -24 -7 -32 -6 -32 3 0 16 45 35
102 45 4 0 10 -3 13 -9z m-4012 -20 c-5 -19 -23 -26 -36 -14 -11 11 5 34 23
34 13 0 17 -5 13 -20z m1897 -10 c0 -5 -2 -10 -4 -10 -3 0 -8 5 -11 10 -3 6
-1 10 4 10 6 0 11 -4 11 -10z m13677 4 c-3 -3 -12 -4 -19 -1 -8 3 -5 6 6 6 11
1 17 -2 13 -5z m-1967 -74 c0 -5 -9 -10 -21 -10 -11 0 -17 5 -14 10 3 6 13 10
21 10 8 0 14 -4 14 -10z m-13668 -45 c-12 -15 -23 -21 -27 -15 -3 5 1 17 9 26
9 8 16 21 16 27 0 8 3 8 11 0 9 -9 6 -18 -9 -38z m16925 -11 c8 -21 -19 -46
-51 -46 -13 0 -27 -7 -30 -14 -3 -8 -18 -14 -33 -14 l-28 0 25 20 c14 11 31
20 38 20 6 0 12 4 12 9 0 15 30 41 46 41 8 0 17 -7 21 -16z m-2077 -29 c10
-12 10 -15 -4 -15 -9 0 -16 7 -16 15 0 8 2 15 4 15 2 0 9 -7 16 -15z m-14470
-15 c36 -18 55 -50 30 -50 -5 0 -10 -7 -10 -15 0 -21 54 -46 95 -43 25 1 39
-4 49 -17 16 -22 12 -35 -9 -35 -19 0 -28 -55 -23 -135 4 -62 3 -65 -18 -65
-33 0 -66 -15 -97 -44 -15 -14 -32 -26 -37 -26 -4 0 -18 19 -30 43 -19 36 -23
57 -22 142 0 55 -4 118 -10 139 -8 33 -7 42 6 52 16 11 12 44 -5 44 -5 0 -9 7
-9 15 0 21 43 19 90 -5z m-423 -25 c-11 -8 -17 -23 -15 -37 2 -18 8 -22 29
-20 25 2 27 -1 32 -50 3 -29 9 -65 13 -80 l6 -27 -63 4 c-35 2 -71 6 -80 10
-10 3 -20 2 -24 -4 -3 -6 -11 -11 -16 -11 -12 0 0 52 16 65 12 11 41 54 62 94
7 13 13 34 13 47 0 18 5 24 23 24 21 -1 21 -1 4 -15z m-337 -21 c0 -2 -9 -4
-21 -4 -11 0 -18 4 -14 10 5 8 35 3 35 -6z m1274 -15 c12 -25 13 -35 4 -46
-20 -25 -49 -36 -61 -24 -7 7 -14 7 -23 0 -8 -7 -28 -7 -56 -2 -33 7 -43 13
-43 28 0 11 -3 25 -7 31 -12 19 0 21 74 16 59 -4 72 -2 80 12 12 22 14 21 32
-15z m10336 6 c10 -13 7 -17 -23 -30 -44 -18 -55 -19 -39 -3 7 7 12 20 12 30
0 22 32 24 50 3z m632 -1 c3 -3 -5 -24 -18 -47 -13 -23 -24 -56 -24 -73 0 -19
-6 -34 -15 -38 -25 -9 -30 23 -10 60 11 21 16 44 12 63 -5 23 -2 31 11 34 27
7 38 7 44 1z m-6891 -23 c15 -14 19 -26 14 -41 -6 -20 -8 -19 -26 14 -28 52
-24 61 12 27z m2169 0 c0 -12 -10 -23 -27 -28 -37 -13 -53 -6 -53 21 0 20 6
23 40 24 33 2 40 -1 40 -17z m-5940 -11 c9 -6 15 -29 16 -72 2 -83 1 -78 24
-78 11 0 27 -12 37 -27 10 -16 22 -31 28 -35 6 -5 3 -8 -7 -8 -9 0 -20 5 -23
10 -3 6 -21 10 -39 10 -17 0 -37 5 -43 11 -6 6 -26 14 -45 18 -26 5 -34 12
-36 34 -2 15 1 27 7 27 7 0 11 23 11 54 0 49 2 55 23 59 12 2 24 5 27 5 3 1
12 -2 20 -8z m838 -63 c5 -25 -28 -34 -44 -12 -7 10 -11 22 -8 27 10 15 49 4
52 -15z m-472 -4 c27 -6 65 -74 47 -80 -19 -7 -16 -33 3 -33 9 0 14 -6 12 -12
-3 -8 -31 -16 -69 -20 -35 -3 -68 -7 -74 -8 -41 -9 -49 24 -10 42 14 6 25 18
26 27 1 9 2 35 3 59 1 38 3 42 21 37 11 -4 30 -9 41 -12z m684 -49 c0 -43 -4
-63 -11 -59 -11 8 -8 125 4 125 4 0 7 -30 7 -66z m9384 51 c-4 -8 -12 -15 -20
-15 -8 0 -11 6 -8 15 4 8 12 15 20 15 8 0 11 -6 8 -15z m-10859 -35 c3 -6 -1
-7 -9 -4 -18 7 -21 14 -7 14 6 0 13 -4 16 -10z m505 6 c0 -11 -19 -15 -25 -6
-3 5 1 10 9 10 9 0 16 -2 16 -4z m682 -16 c27 0 40 -5 48 -20 6 -11 18 -20 26
-20 22 0 13 -34 -9 -38 -10 -2 -24 4 -31 13 -9 13 -23 16 -52 14 l-39 -4 -2
39 c-1 28 2 35 10 27 6 -6 28 -11 49 -11z m6354 -17 c17 -17 16 -18 -9 -27
-34 -12 -35 -26 -3 -26 14 0 32 -7 41 -16 28 -28 1 -44 -72 -44 l-65 0 26 34
c14 19 26 43 26 53 0 19 18 43 31 43 4 0 15 -8 25 -17z m-7451 -14 c41 -19 74
-54 62 -65 -9 -9 -53 14 -96 50 -49 41 -35 47 34 15z m12345 7 c0 -16 -19 -25
-38 -18 -9 3 -10 8 -1 18 15 18 39 18 39 0z m-2995 -16 c-3 -5 -12 -10 -20
-10 -8 0 -17 5 -20 10 -4 6 5 10 20 10 15 0 24 -4 20 -10z m-10398 -42 c-3 -7
-5 -2 -5 12 0 14 2 19 5 13 2 -7 2 -19 0 -25z m956 20 c12 -6 32 -20 44 -32
12 -12 32 -29 43 -38 25 -23 27 -68 3 -68 -10 0 -27 7 -37 15 -11 8 -27 15
-36 15 -8 0 -21 9 -28 21 -10 16 -16 18 -26 9 -11 -8 -16 -4 -25 21 -19 55 12
84 62 57z m10210 2 c16 0 -14 -20 -30 -20 -7 0 -13 7 -13 16 0 11 5 14 16 10
9 -3 21 -6 27 -6z m1037 1 c0 -5 -9 -11 -20 -14 -22 -6 -28 8 -7 16 19 8 27 8
27 -2z m-879 -14 c9 -7 14 -17 12 -23 -7 -22 -153 4 -153 27 0 14 123 10 141
-4z m378 -1 c10 -12 5 -19 -25 -40 -34 -23 -40 -24 -55 -10 -11 9 -26 13 -42
9 -28 -7 -44 7 -24 23 38 30 127 41 146 18z m-1369 -31 c0 -14 -4 -25 -10 -25
-5 0 -10 11 -10 25 0 14 5 25 10 25 6 0 10 -11 10 -25z m-2591 -22 c15 -32 0
-53 -24 -33 -22 18 -19 60 5 60 4 0 12 -12 19 -27z m8427 12 c-22 -16 -46 -20
-46 -7 0 15 13 22 39 22 25 -1 25 -1 7 -15z m-3505 -22 c5 -14 1 -28 -16 -46
-32 -38 -47 -35 -43 11 5 56 42 79 59 35z m517 15 c-3 -7 -15 -14 -29 -16 -23
-2 -23 -2 -5 13 24 18 39 20 34 3z m207 -11 c20 -16 13 -37 -13 -37 -21 0 -62
27 -62 41 0 14 54 11 75 -4z m-12090 -13 c17 -9 53 -25 80 -34 61 -22 77 -43
52 -67 -16 -16 -20 -16 -69 1 -103 37 -122 49 -129 84 -6 28 -4 32 15 32 11 0
35 -7 51 -16z m10641 1 c14 -13 12 -15 -15 -15 -21 0 -31 5 -31 15 0 8 7 15
16 15 8 0 22 -7 30 -15z m-728 -42 c3 -35 -4 -39 -73 -45 -28 -3 -30 0 -33 34
-3 33 -1 37 25 41 62 10 78 4 81 -30z m407 23 c18 -13 18 -15 -15 -52 -19 -22
-39 -39 -44 -39 -13 0 -20 48 -12 81 7 28 41 32 71 10z m2249 6 c-7 -4 -13
-15 -15 -24 -3 -12 -8 -15 -18 -8 -12 7 -12 11 -2 24 8 9 21 16 30 16 10 0 12
-3 5 -8z m-2484 -18 c0 -8 -4 -12 -10 -9 -5 3 -10 10 -10 16 0 5 5 9 10 9 6 0
10 -7 10 -16z m-10655 -4 c3 -5 1 -10 -4 -10 -6 0 -11 5 -11 10 0 6 2 10 4 10
3 0 8 -4 11 -10z m12505 5 c0 -2 -9 -9 -19 -14 -14 -8 -22 -7 -31 4 -11 13 -8
15 19 15 17 0 31 -2 31 -5z m-12263 -21 c5 -16 -22 -21 -84 -16 -61 5 -70 19
-15 25 58 6 95 3 99 -9z m12493 -2 c0 -10 -15 -26 -35 -36 -29 -16 -39 -17
-61 -7 -25 11 -26 13 -9 31 9 10 31 21 49 23 17 2 37 5 44 5 6 1 12 -6 12 -16z
m-14130 -2 c0 -5 -5 -10 -11 -10 -5 0 -7 5 -4 10 3 6 8 10 11 10 2 0 4 -4 4
-10z m9220 -32 c0 -5 -4 -8 -10 -8 -5 0 -10 10 -10 23 0 18 2 19 10 7 5 -8 10
-18 10 -22z m-2453 -55 c-3 -10 -5 -2 -5 17 0 19 2 27 5 18 2 -10 2 -26 0 -35z
m1583 31 c0 -2 -7 -4 -15 -4 -8 0 -15 4 -15 10 0 5 7 7 15 4 8 -4 15 -8 15
-10z m2520 -13 c0 -4 -5 -12 -10 -17 -6 -6 -13 -35 -16 -65 -8 -81 -13 -99
-28 -99 -8 0 -22 12 -31 27 -16 23 -16 33 -7 70 7 24 12 51 12 60 0 23 28 41
56 35 13 -2 24 -7 24 -11z m-10919 -6 c0 -5 -9 -11 -21 -13 -20 -3 -27 8 -13
22 10 9 34 3 34 -9z m2422 -2 c-7 -2 -21 -2 -30 0 -10 3 -4 5 12 5 17 0 24 -2
18 -5z m-1843 -18 c0 -8 -4 -15 -8 -15 -5 0 -14 -10 -20 -22 l-11 -23 0 26
c-1 24 15 49 31 49 4 0 8 -7 8 -15z m10020 -5 c0 -5 -4 -10 -10 -10 -5 0 -10
5 -10 10 0 6 5 10 10 10 6 0 10 -4 10 -10z m-1390 -31 c10 -18 9 -20 -7 -17
-10 2 -19 11 -21 21 -5 24 15 21 28 -4z m2455 -9 c8 -16 15 -52 15 -80 0 -46
-2 -50 -24 -50 -25 0 -36 16 -36 56 0 13 -4 24 -10 24 -5 0 -10 -13 -10 -30 0
-23 -4 -30 -20 -30 -30 0 -29 73 2 94 29 21 46 20 51 -1 2 -10 2 -3 0 15 -5
40 11 42 32 2z m-11722 6 c5 -13 -25 -46 -43 -46 -15 0 -12 21 7 42 19 21 29
23 36 4z m12947 -2 c0 -17 -65 -48 -81 -38 -17 10 -5 26 31 39 48 17 50 17 50
-1z m-5810 -16 c0 -13 -23 -5 -28 10 -2 7 2 10 12 6 9 -3 16 -11 16 -16z
m4239 -19 l4 -34 6 30 c12 61 100 28 114 -43 8 -42 -8 -50 -54 -24 -22 13 -45
20 -51 16 -7 -4 -23 -8 -36 -9 -22 -1 -23 2 -18 35 3 19 6 43 6 53 0 32 25 12
29 -24z m854 -31 c-6 -11 -71 -10 -77 1 -8 12 14 28 44 33 24 3 43 -17 33 -34z
m248 -29 c53 -28 -47 -54 -105 -27 -20 9 -23 14 -15 25 14 16 92 17 120 2z
m159 8 c0 -2 -8 -14 -19 -25 -20 -24 -74 -31 -65 -9 5 14 84 45 84 34z m-401
-24 c29 -25 17 -33 -49 -33 -59 0 -76 9 -66 35 8 21 90 20 115 -2z m-399 -18
c0 -2 -7 -5 -15 -9 -9 -3 -15 0 -15 9 0 9 6 12 15 9 8 -4 15 -7 15 -9z m108
-2 c-10 -2 -28 -2 -40 0 -13 2 -5 4 17 4 22 1 32 -1 23 -4z m-11151 -65 c34
-15 43 -27 36 -45 -8 -19 -61 -13 -101 13 -7 4 19 44 28 44 5 0 22 -6 37 -12z
m-330 -40 c-3 -7 -5 -2 -5 12 0 14 2 19 5 13 2 -7 2 -19 0 -25z m1652 5 c20
-17 21 -19 6 -40 -20 -28 -25 -28 -59 -2 -26 20 -26 22 -10 40 21 24 36 24 63
2z m3826 7 c3 -5 1 -10 -4 -10 -6 0 -11 5 -11 10 0 6 2 10 4 10 3 0 8 -4 11
-10z m-5498 -72 c-1 -17 -9 -34 -16 -36 -10 -3 -12 0 -8 12 4 10 7 26 7 37 0
10 4 19 10 19 5 0 9 -14 7 -32z m6946 -44 c19 -19 -52 -77 -80 -67 -21 7 -15
39 10 56 23 16 59 22 70 11z m1287 -26 c0 -16 -51 -68 -66 -68 -25 0 -24 19 2
49 26 31 64 42 64 19z m-2717 -10 c30 -15 42 -37 28 -51 -6 -6 -14 -5 -23 2
-7 7 -28 23 -47 36 -34 24 -34 25 -10 25 14 0 37 -6 52 -12z m5087 -48 c0 -28
-95 -79 -113 -61 -14 14 7 37 52 61 34 17 61 17 61 0z m-5116 -6 c22 -9 20
-41 -3 -49 -13 -4 -27 1 -40 14 -26 26 -26 29 2 34 12 2 23 5 24 6 1 0 8 -2
17 -5z m-1213 -75 c-3 -70 -7 -81 -21 -59 -19 30 -8 134 14 127 7 -2 10 -26 7
-68z m5625 34 c-7 -7 -26 7 -26 19 0 6 6 6 15 -2 9 -7 13 -15 11 -17z m-631
-48 c0 -29 -62 -39 -76 -14 -10 20 -7 23 36 32 30 7 40 2 40 -18z m5005 6 c0
-29 -117 -61 -127 -35 -2 6 11 18 29 27 35 18 98 23 98 8z m-9920 -43 c0 -29
-19 -31 -30 -3 -15 39 -12 47 10 33 11 -7 20 -20 20 -30z m1070 -8 c0 -5 -7
-10 -15 -10 -8 0 -15 5 -15 10 0 6 7 10 15 10 8 0 15 -4 15 -10z m-2633 -10
c11 0 14 -7 9 -25 -7 -27 2 -32 23 -12 11 10 12 8 6 -11 -12 -41 2 -72 33 -72
15 0 37 -7 49 -15 20 -14 21 -19 11 -43 -17 -40 -25 -47 -41 -33 -12 9 -16 7
-20 -9 -8 -30 -31 -24 -46 13 -21 50 -20 78 1 71 25 -8 22 12 -4 30 -31 22
-58 20 -58 -3 0 -11 -4 -21 -9 -23 -5 -2 -5 -29 0 -63 10 -73 5 -91 -27 -99
-23 -6 -24 -8 -8 -23 13 -13 15 -28 10 -69 -7 -57 -24 -104 -38 -104 -5 0 -8
53 -7 118 1 89 -2 126 -15 156 -15 37 -15 40 4 71 11 18 18 40 14 48 -7 19 25
77 43 77 8 0 16 7 20 16 3 8 12 13 20 10 8 -3 22 -6 30 -6z m1595 -73 c6 -23
19 -50 29 -59 10 -10 15 -26 12 -37 -3 -13 1 -21 16 -26 12 -3 21 -9 21 -13 0
-11 93 -106 105 -108 6 0 17 -2 26 -2 26 -3 11 -52 -20 -65 -33 -15 -42 -27
-35 -49 3 -10 1 -18 -5 -18 -6 0 -11 10 -11 23 0 13 -4 27 -9 32 -4 6 -16 31
-26 57 -18 49 -50 78 -85 78 -11 0 -20 5 -20 10 0 6 -5 10 -10 10 -16 0 -47
32 -54 57 -4 13 -14 30 -22 38 -9 8 -14 23 -12 33 3 12 10 5 23 -23 28 -57 74
-105 102 -105 26 0 31 15 8 24 -8 3 -15 12 -15 21 0 8 -4 15 -10 15 -5 0 -10
15 -10 33 0 17 -7 45 -15 61 -17 32 -20 70 -5 61 5 -3 15 -25 22 -48z m5235 1
c-3 -8 -6 -5 -6 6 -1 11 2 17 5 13 3 -3 4 -12 1 -19z m4913 -68 c0 -20 -25
-38 -36 -27 -8 7 15 47 26 47 6 0 10 -9 10 -20z m-10380 -116 c0 -8 -5 -12
-10 -9 -6 4 -8 11 -5 16 9 14 15 11 15 -7z m985 6 c3 -5 1 -10 -4 -10 -6 0
-11 5 -11 10 0 6 2 10 4 10 3 0 8 -4 11 -10z m-2351 -46 c8 -21 6 -94 -3 -118
-5 -13 -11 1 -19 48 -7 37 -10 71 -7 76 9 15 22 12 29 -6z m1386 -7 c0 -7 14
-32 30 -54 l31 -42 -7 -115 c-5 -78 -11 -117 -20 -120 -15 -6 -27 35 -18 69 3
14 1 32 -5 39 -7 8 -16 56 -22 108 -5 51 -12 101 -15 111 -3 11 0 17 10 17 9
0 16 -6 16 -13z m-4215 -17 c3 -5 -1 -10 -9 -10 -9 0 -16 5 -16 10 0 6 4 10 9
10 6 0 13 -4 16 -10z m70 0 c3 -5 -3 -10 -15 -10 -12 0 -18 5 -15 10 3 6 10
10 15 10 5 0 12 -4 15 -10z m-388 -6 c-3 -3 -12 -4 -19 -1 -8 3 -5 6 6 6 11 1
17 -2 13 -5z m3743 -150 c0 -8 -4 -12 -10 -9 -5 3 -10 10 -10 16 0 5 5 9 10 9
6 0 10 -7 10 -16z m156 2 c16 -17 19 -36 4 -36 -5 0 -10 7 -10 15 0 8 -4 15
-10 15 -5 0 -10 5 -10 10 0 14 9 12 26 -4z m-329 -28 c-3 -8 -6 -5 -6 6 -1 11
2 17 5 13 3 -3 4 -12 1 -19z m-524 -24 c-4 -10 -9 -12 -15 -6 -12 12 -1 35 12
27 5 -3 6 -13 3 -21z m1062 6 c-3 -5 -10 -10 -16 -10 -5 0 -9 5 -9 10 0 6 7
10 16 10 8 0 12 -4 9 -10z m6717 -90 c3 -41 11 -102 18 -135 6 -33 8 -75 5
-94 -6 -30 -7 -31 -19 -15 -12 16 -15 16 -28 3 -8 -8 -19 -23 -26 -34 -10 -17
-11 -14 -12 26 0 28 6 51 14 58 11 9 13 33 9 114 -3 56 -10 104 -14 105 -11 4
-12 36 -2 46 4 4 16 6 28 4 17 -3 21 -13 27 -78z m-6962 55 c-7 -8 -24 -15
-39 -15 -25 1 -25 1 -7 15 11 8 29 15 39 15 16 0 17 -3 7 -15z m163 8 c-7 -2
-21 -2 -30 0 -10 3 -4 5 12 5 17 0 24 -2 18 -5z m-92 -26 c-13 -13 -26 -3 -16
12 3 6 11 8 17 5 6 -4 6 -10 -1 -17z m-191 -7 c0 -11 -4 -20 -8 -20 -5 0 -17
9 -27 20 -18 20 -17 20 8 20 20 0 27 -5 27 -20z m-20 -30 c0 -5 -10 -10 -22
-10 -19 0 -20 2 -8 10 19 13 30 13 30 0z m7510 -15 c7 -8 25 -15 41 -15 15 0
31 -5 34 -10 4 -6 15 -8 26 -5 23 8 27 -22 4 -31 -8 -3 -19 -22 -26 -42 -14
-45 -38 -74 -55 -68 -7 3 -18 -2 -24 -9 -9 -10 -25 -13 -58 -8 -54 7 -78 21
-62 37 5 5 10 18 10 28 0 10 4 26 9 36 5 9 14 29 20 45 6 15 17 27 25 27 7 0
16 7 20 15 3 8 9 15 14 15 5 0 15 -7 22 -15z m-6703 -72 c-3 -10 -5 -4 -5 12
0 17 2 24 5 18 2 -7 2 -21 0 -30z m3913 -82 c14 -27 13 -31 -9 -31 -23 0 -35
15 -27 35 8 21 23 19 36 -4z m-3980 -1 c0 -5 -5 -10 -11 -10 -5 0 -7 5 -4 10
3 6 8 10 11 10 2 0 4 -4 4 -10z m4061 -52 c6 -24 4 -28 -13 -28 -10 0 -26 7
-35 15 -12 13 -13 18 -2 31 18 22 41 13 50 -18z m3412 -111 c-6 -38 -43 -75
-43 -43 0 8 5 18 10 21 6 3 10 19 10 34 0 15 3 31 7 35 14 13 22 -11 16 -47z
m-1973 -107 c0 -13 -11 -13 -30 0 -12 8 -11 10 8 10 12 0 22 -4 22 -10z"/>
<path d="M7968 4599 c-15 -8 -18 -24 -18 -88 0 -91 9 -104 67 -99 l38 3 3 83
c2 53 -1 89 -9 98 -13 16 -56 18 -81 3z"/>
<path d="M8613 4604 c-7 -3 -13 -23 -13 -44 0 -43 14 -53 60 -43 34 6 51 44
33 72 -10 16 -57 25 -80 15z"/>
<path d="M9307 4603 c-16 -4 -17 -15 -15 -96 l3 -92 40 -3 c53 -5 65 14 65 99
0 90 -21 111 -93 92z"/>
<path d="M10271 4596 c-16 -19 -11 -56 10 -69 9 -5 28 -7 43 -3 24 6 27 11 24
44 -3 33 -6 37 -34 40 -18 2 -36 -3 -43 -12z"/>
<path d="M10601 4549 c-19 -54 -15 -69 19 -69 34 0 33 -3 19 56 -13 52 -23 55
-38 13z"/>
<path d="M11015 3858 c-34 -104 -97 -360 -91 -374 4 -11 29 -14 105 -14 55 0
102 3 104 8 5 6 -10 70 -47 202 -9 30 -23 85 -32 123 -16 63 -30 82 -39 55z"/>
<path d="M17120 3106 c0 -2 6 -9 14 -15 10 -9 15 -8 20 4 4 10 -1 15 -14 15
-11 0 -20 -2 -20 -4z"/>
<path d="M17135 3030 c-3 -5 3 -10 15 -10 12 0 18 5 15 10 -3 6 -10 10 -15 10
-5 0 -12 -4 -15 -10z"/>
<path d="M10822 2586 c-18 -9 -37 -27 -43 -43 -6 -18 -9 -108 -7 -245 l3 -217
29 -30 c21 -22 39 -31 62 -31 18 0 34 5 36 11 4 11 53 13 115 4 37 -6 43 -4
58 19 15 23 18 57 18 256 l1 230 -27 27 c-24 25 -34 27 -119 30 -66 2 -102 -1
-126 -11z"/>
<path d="M12100 1714 c0 -8 5 -12 10 -9 6 4 8 11 5 16 -9 14 -15 11 -15 -7z"/>
<path d="M2257 3138 c-2 -7 -1 -22 3 -33 7 -19 7 -19 19 3 12 22 8 42 -9 42
-4 0 -10 -6 -13 -12z"/>
<path d="M2140 2676 c0 -9 5 -16 10 -16 6 0 10 4 10 9 0 6 -4 13 -10 16 -5 3
-10 -1 -10 -9z"/>
<path d="M16370 2480 c0 -5 9 -10 20 -10 11 0 20 5 20 10 0 6 -9 10 -20 10
-11 0 -20 -4 -20 -10z"/>
<path d="M16390 2440 c-12 -8 -12 -10 3 -16 22 -8 50 3 42 16 -8 12 -25 13
-45 0z"/>
<path d="M16464 2385 c-7 -17 -50 -21 -56 -5 -2 6 -8 2 -15 -8 -14 -24 0 -53
18 -35 6 6 26 9 45 6 33 -5 34 -4 34 26 0 32 -16 42 -26 16z"/>
<path d="M16605 2390 c-8 -12 20 -24 35 -15 6 3 8 11 5 16 -8 12 -32 12 -40
-1z"/>
<path d="M16660 2360 c0 -5 5 -10 10 -10 6 0 10 5 10 10 0 6 -4 10 -10 10 -5
0 -10 -4 -10 -10z"/>
<path d="M1930 2349 c0 -5 5 -7 10 -4 6 3 10 8 10 11 0 2 -4 4 -10 4 -5 0 -10
-5 -10 -11z"/>
<path d="M16605 2320 c-3 -5 1 -10 9 -10 9 0 16 5 16 10 0 6 -4 10 -9 10 -6 0
-13 -4 -16 -10z"/>
<path d="M16344 2309 c-3 -6 -2 -15 4 -21 7 -7 14 -3 21 11 10 17 9 21 -3 21
-8 0 -18 -5 -22 -11z"/>
<path d="M16710 2287 c-22 -11 -25 -20 -28 -76 -3 -58 -1 -66 24 -92 15 -16
36 -29 46 -29 28 0 22 33 -12 65 -35 34 -38 45 -10 45 11 0 23 8 27 18 12 35
23 42 44 29 10 -6 19 -18 19 -25 0 -7 16 -29 35 -49 25 -25 35 -31 35 -20 0
10 -4 17 -8 17 -12 0 -32 47 -32 75 0 13 -7 31 -16 39 -19 19 -89 21 -124 3z"/>
<path d="M16360 2241 c0 -5 6 -11 13 -14 18 -6 48 4 41 14 -7 12 -54 12 -54 0z"/>
<path d="M16470 2231 c0 -12 5 -21 10 -21 6 0 10 6 10 14 0 8 -4 18 -10 21 -5
3 -10 -3 -10 -14z"/>
<path d="M16900 2189 c0 -5 5 -7 10 -4 6 3 10 8 10 11 0 2 -4 4 -10 4 -5 0
-10 -5 -10 -11z"/>
<path d="M16620 2146 c0 -2 7 -6 15 -10 8 -3 15 -1 15 4 0 6 -7 10 -15 10 -8
0 -15 -2 -15 -4z"/>
<path d="M16660 2094 c0 -9 -9 -27 -20 -41 -41 -53 -15 -86 30 -38 13 14 34
25 47 25 30 0 29 5 -9 41 -37 33 -48 36 -48 13z"/>
<path d="M16036 2085 c4 -8 8 -15 10 -15 2 0 4 7 4 15 0 8 -4 15 -10 15 -5 0
-7 -7 -4 -15z"/>
<path d="M16842 2032 c-12 -14 -22 -32 -22 -38 0 -14 -76 -84 -91 -84 -22 0
-120 -73 -115 -85 2 -7 0 -29 -6 -49 -14 -45 5 -109 38 -131 26 -17 35 -9 38
35 2 31 50 100 69 100 7 0 19 -4 26 -9 22 -14 51 6 51 34 0 14 4 33 9 43 27
53 50 195 34 205 -6 4 -20 -6 -31 -21z"/>
<path d="M510 2029 c0 -11 4 -18 10 -14 5 3 7 12 3 20 -7 21 -13 19 -13 -6z"/>
<path d="M15994 2013 c-12 -2 -29 -12 -38 -22 -16 -18 -15 -19 16 -30 28 -10
35 -9 45 6 14 18 18 54 6 52 -5 -1 -18 -4 -29 -6z"/>
<path d="M477 1990 c-14 -17 -15 -20 -2 -20 9 0 18 7 22 15 9 24 -1 27 -20 5z"/>
<path d="M1022 1929 c-18 -17 -32 -38 -32 -45 0 -38 82 9 95 54 10 33 -24 29
-63 -9z"/>
<path d="M357 1914 c-3 -3 0 -20 6 -37 l11 -32 7 29 c10 37 -3 60 -24 40z"/>
<path d="M408 1915 c-2 -3 -3 -18 0 -35 5 -33 32 -42 32 -11 0 37 -16 61 -32
46z"/>
<path d="M17186 1824 c-9 -22 -8 -24 9 -24 8 0 15 6 15 14 0 22 -17 28 -24 10z"/>
<path d="M487 1774 c-13 -13 -7 -24 14 -24 11 0 19 5 17 12 -5 14 -22 21 -31
12z"/>
<path d="M440 1740 c0 -5 5 -10 11 -10 5 0 7 5 4 10 -3 6 -8 10 -11 10 -2 0
-4 -4 -4 -10z"/>
<path d="M526 1733 c-12 -12 -6 -33 9 -33 8 0 15 6 15 14 0 17 -14 28 -24 19z"/>
<path d="M15815 1650 c-8 -14 3 -30 21 -30 8 0 14 9 14 20 0 21 -24 28 -35 10z"/>
<path d="M112 1637 c-42 -16 -49 -28 -44 -72 6 -46 38 -67 51 -32 15 40 37 51
75 40 18 -6 40 -7 48 -2 7 4 19 4 26 0 9 -6 7 -14 -9 -35 -16 -20 -20 -35 -15
-61 8 -39 24 -49 48 -28 11 10 22 12 35 5 29 -15 101 -23 108 -12 9 14 -63 80
-81 73 -9 -3 -14 1 -14 11 0 9 -21 37 -47 62 -34 34 -52 45 -69 41 -13 -2 -21
0 -18 4 3 5 -1 9 -8 9 -7 0 -22 2 -33 5 -11 2 -35 -2 -53 -8z"/>
<path d="M510 1640 c0 -5 5 -10 10 -10 6 0 10 5 10 10 0 6 -4 10 -10 10 -5 0
-10 -4 -10 -10z"/>
<path d="M17250 1366 c-70 -36 -92 -49 -140 -82 -52 -36 -196 -192 -186 -201
3 -4 49 37 101 90 52 53 100 97 106 97 7 0 27 11 45 25 18 14 37 25 43 25 6 0
11 5 11 10 0 6 7 10 15 10 22 0 75 29 75 40 0 15 -21 11 -70 -14z"/>
<path d="M1591 1304 c0 -11 3 -14 6 -6 3 7 2 16 -1 19 -3 4 -6 -2 -5 -13z"/>
<path d="M314 1291 c-8 -8 8 -21 25 -21 29 0 52 -33 49 -71 -3 -32 -1 -34 25
-31 18 2 26 -1 22 -7 -3 -6 -13 -11 -22 -11 -10 0 -13 -6 -9 -16 3 -9 6 -17 6
-19 0 -12 120 73 123 87 3 9 15 18 28 20 28 4 28 32 0 61 -15 16 -26 17 -67
10 -27 -4 -77 -6 -112 -3 -35 3 -65 3 -68 1z"/>
<path d="M7260 1161 c0 -15 -51 -23 -66 -10 -11 9 -14 7 -14 -12 0 -13 -4 -31
-10 -39 -5 -9 -5 -19 2 -27 17 -21 27 -15 36 19 5 19 16 34 26 36 25 5 61 42
41 42 -8 0 -15 -4 -15 -9z"/>
<path d="M752 1040 c0 -14 2 -19 5 -12 2 6 2 18 0 25 -3 6 -5 1 -5 -13z"/>
<path d="M1445 1021 c-3 -5 -1 -12 5 -16 5 -3 10 1 10 9 0 18 -6 21 -15 7z"/>
<path d="M16622 1010 c-16 -25 -15 -57 1 -64 6 -3 1 -3 -11 0 -21 5 -23 3 -17
-18 8 -25 22 -38 43 -38 8 0 12 21 12 70 0 72 -6 84 -28 50z"/>
<path d="M1372 893 c-52 -91 -76 -173 -50 -173 7 0 21 22 31 49 9 28 33 77 52
111 34 60 44 100 26 100 -5 0 -31 -39 -59 -87z"/>
<path d="M17840 803 c0 -4 7 -17 15 -27 17 -23 34 -13 19 11 -12 19 -34 29
-34 16z"/>
<path d="M18398 793 c7 -3 16 -2 19 1 4 3 -2 6 -13 5 -11 0 -14 -3 -6 -6z"/>
<path d="M18233 773 c9 -2 23 -2 30 0 6 3 -1 5 -18 5 -16 0 -22 -2 -12 -5z"/>
<path d="M6613 748 c-79 -9 -83 -11 -83 -34 0 -35 21 -39 76 -15 25 12 59 21
73 21 15 0 31 4 37 10 5 5 27 14 49 19 l40 9 -55 0 c-30 -1 -92 -5 -137 -10z"/>
<path d="M1440 738 c0 -9 -6 -18 -12 -21 -7 -2 -10 -8 -6 -12 4 -4 15 0 24 9
12 13 14 20 5 29 -8 8 -11 7 -11 -5z"/>
<path d="M17961 734 c0 -11 3 -14 6 -6 3 7 2 16 -1 19 -3 4 -6 -2 -5 -13z"/>
<path d="M17900 708 c0 -7 16 -31 35 -53 23 -26 35 -34 35 -23 0 9 -3 18 -7
20 -5 2 -16 16 -25 33 -18 32 -38 45 -38 23z"/>
<path d="M1301 689 c0 -14 -13 -49 -27 -78 -24 -51 -26 -70 -6 -57 16 9 44
110 39 137 -4 24 -4 24 -6 -2z"/>
<path d="M18145 691 c-3 -5 -1 -12 5 -16 5 -3 10 1 10 9 0 18 -6 21 -15 7z"/>
<path d="M4585 680 c4 -6 11 -8 16 -5 14 9 11 15 -7 15 -8 0 -12 -5 -9 -10z"/>
<path d="M18215 680 c3 -5 8 -10 11 -10 2 0 4 5 4 10 0 6 -5 10 -11 10 -5 0
-7 -4 -4 -10z"/>
<path d="M4618 653 c7 -3 16 -2 19 1 4 3 -2 6 -13 5 -11 0 -14 -3 -6 -6z"/>
<path d="M736 507 c4 -28 13 -69 20 -91 8 -23 10 -44 5 -53 -5 -9 -4 -33 2
-56 9 -34 12 -37 18 -21 12 31 10 84 -8 176 -9 52 -22 89 -30 92 -11 5 -12 -5
-7 -47z"/>
<path d="M5213 524 c-28 -12 -11 -24 33 -24 32 0 44 4 42 13 -5 13 -54 20 -75
11z"/>
<path d="M5153 485 c-3 -9 -3 -19 1 -22 7 -7 36 16 36 28 0 15 -30 10 -37 -6z"/>
<path d="M5310 489 c0 -5 5 -7 10 -4 6 3 10 8 10 11 0 2 -4 4 -10 4 -5 0 -10
-5 -10 -11z"/>
<path d="M5400 490 c0 -5 7 -10 15 -10 8 0 15 5 15 10 0 6 -7 10 -15 10 -8 0
-15 -4 -15 -10z"/>
<path d="M888 453 c5 -41 38 -93 59 -93 7 0 13 -4 13 -10 0 -5 5 -10 10 -10 6
0 10 16 10 35 0 19 5 35 11 35 8 0 8 5 -1 15 -7 8 -10 22 -6 30 10 27 -33 17
-46 -11 -11 -23 -13 -24 -19 -7 -13 31 -10 41 14 46 14 3 10 5 -13 6 -36 1
-36 1 -32 -36z"/>
<path d="M4330 385 c0 -15 4 -24 10 -20 6 3 10 12 10 20 0 8 -4 17 -10 20 -6
4 -10 -5 -10 -20z"/>
<path d="M4615 300 c-7 -11 35 -30 64 -30 18 0 41 18 41 32 0 12 -98 10 -105
-2z"/>
<path d="M728 223 c7 -3 16 -2 19 1 4 3 -2 6 -13 5 -11 0 -14 -3 -6 -6z"/>
<path d="M870 214 c0 -17 22 -14 28 4 2 7 -3 12 -12 12 -9 0 -16 -7 -16 -16z"/>
<path d="M991 214 c0 -11 3 -14 6 -6 3 7 2 16 -1 19 -3 4 -6 -2 -5 -13z"/>
<path d="M18746 214 c-98 -16 -109 -25 -73 -62 15 -16 27 -39 27 -54 0 -15 9
-43 21 -62 23 -39 55 -47 104 -24 21 9 31 9 46 0 10 -7 32 -12 49 -12 28 0 29
2 24 33 -12 71 -65 167 -102 185 -10 5 -50 4 -96 -4z"/>
<path d="M790 170 c-9 -16 -8 -20 5 -20 8 0 15 9 15 20 0 11 -2 20 -5 20 -2 0
-9 -9 -15 -20z"/>
<path d="M6981 163 c-17 -18 -9 -26 16 -16 16 6 18 11 9 19 -9 8 -15 7 -25 -3z"/>
<path d="M14060 161 c0 -27 30 -55 43 -42 7 7 5 18 -7 35 -20 31 -36 34 -36 7z"/>
<path d="M18505 168 c-5 -6 -37 -34 -69 -63 -51 -46 -58 -56 -52 -79 l6 -26
110 0 110 0 0 29 c0 15 -8 39 -18 52 -10 13 -23 36 -29 51 -14 32 -43 50 -58
36z"/>
<path d="M13900 143 c0 -22 2 -25 10 -13 13 20 13 40 0 40 -5 0 -10 -12 -10
-27z"/>
<path d="M6912 115 c-11 -13 -9 -15 13 -15 16 0 25 5 23 12 -6 18 -21 19 -36
3z"/>
<path d="M13800 115 c-9 -10 -6 -15 9 -20 13 -4 21 -15 21 -28 0 -19 1 -20 16
-5 13 13 14 19 3 37 -18 27 -35 33 -49 16z"/>
<path d="M676 111 c-4 -7 -5 -15 -2 -18 9 -9 19 4 14 18 -4 11 -6 11 -12 0z"/>
<path d="M13730 105 c0 -8 5 -15 10 -15 6 0 10 7 10 15 0 8 -4 15 -10 15 -5 0
-10 -7 -10 -15z"/>
<path d="M11788 103 c7 -3 16 -2 19 1 4 3 -2 6 -13 5 -11 0 -14 -3 -6 -6z"/>
<path d="M15168 97 c-31 -12 -32 -15 -18 -37 8 -12 14 -12 45 3 31 15 35 20
25 32 -14 17 -15 17 -52 2z"/>
<path d="M6143 93 c-7 -3 -13 -12 -13 -21 0 -15 2 -15 17 1 18 18 16 27 -4 20z"/>
<path d="M11735 89 c-10 -15 1 -23 20 -15 9 3 13 10 10 16 -8 13 -22 13 -30
-1z"/>
<path d="M16067 89 c-12 -7 -15 -17 -11 -34 4 -18 1 -27 -10 -31 -38 -14 -10
-24 69 -24 l85 0 0 29 c0 37 -23 61 -60 61 -16 0 -34 2 -42 5 -7 2 -21 0 -31
-6z"/>
<path d="M7345 80 c-3 -6 5 -10 19 -10 14 0 28 5 31 10 3 6 -5 10 -19 10 -14
0 -28 -4 -31 -10z"/>
<path d="M700 60 c0 -11 2 -20 4 -20 2 0 6 9 9 20 3 11 1 20 -4 20 -5 0 -9 -9
-9 -20z"/>
<path d="M765 60 c-3 -6 1 -13 9 -16 8 -3 18 -15 21 -25 5 -16 14 -19 38 -17
36 3 45 32 12 34 -11 1 -28 2 -37 3 -10 1 -18 8 -18 16 0 17 -16 20 -25 5z"/>
<path d="M6815 30 c-18 -19 -24 -30 -14 -30 18 1 59 35 59 49 0 19 -15 12 -45
-19z"/>
<path d="M7293 53 c9 -2 23 -2 30 0 6 3 -1 5 -18 5 -16 0 -22 -2 -12 -5z"/>
<path d="M11828 53 c7 -3 16 -2 19 1 4 3 -2 6 -13 5 -11 0 -14 -3 -6 -6z"/>
<path d="M15981 33 c-29 -35 -17 -43 14 -9 27 29 30 36 16 36 -5 0 -19 -12
-30 -27z"/>
<path d="M11769 43 c-15 -2 -35 -13 -45 -24 -17 -18 -16 -19 9 -19 15 0 27 4
27 9 0 5 10 11 22 13 12 2 23 9 26 16 2 6 0 11 -5 11 -4 -1 -20 -4 -34 -6z"/>
<path d="M14080 31 c0 -21 19 -31 58 -31 l27 1 -30 24 c-36 30 -55 32 -55 6z"/>
<path d="M11280 32 c0 -4 5 -13 12 -20 14 -14 68 -16 68 -2 0 6 -9 10 -19 10
-11 0 -23 4 -26 10 -7 12 -35 13 -35 2z"/>
<path d="M13847 20 c3 -11 9 -20 14 -20 5 0 9 9 9 20 0 11 -6 20 -14 20 -9 0
-12 -7 -9 -20z"/>
<path d="M6464 15 c-17 -13 -17 -14 -2 -15 9 0 20 5 23 11 11 17 0 20 -21 4z"/>
<path d="M700 10 c0 -5 5 -10 10 -10 6 0 10 5 10 10 0 6 -4 10 -10 10 -5 0
-10 -4 -10 -10z"/>
<path d="M13700 10 c0 -5 7 -10 15 -10 8 0 15 5 15 10 0 6 -7 10 -15 10 -8 0
-15 -4 -15 -10z"/>
<path d="M13760 10 c0 -5 5 -10 11 -10 5 0 7 5 4 10 -3 6 -8 10 -11 10 -2 0
-4 -4 -4 -10z"/>
</g>
</svg>
